<?xml version="1.0" encoding="utf-8"?>
<!-- Generator: Adobe Illustrator 16.0.0, SVG Export Plug-In . SVG Version: 6.00 Build 0)  -->
<!DOCTYPE svg PUBLIC "-//W3C//DTD SVG 1.1 Tiny//EN" "http://www.w3.org/Graphics/SVG/1.1/DTD/svg11-tiny.dtd">
<svg version="1.1" baseProfile="tiny" id="Layer_1" xmlns="http://www.w3.org/2000/svg" xmlns:xlink="http://www.w3.org/1999/xlink"
	 x="0px" y="0px" width="792px" height="792px" viewBox="0 0 792 792" overflow="scroll" xml:space="preserve">
<g>
	<g>
		<path fill-rule="evenodd" fill="#020202" d="M325.647,384.628c3.318-0.245,6.613-0.854,9.939-0.228
			c4.754,0.894,7.536,3.938,7.561,8.414c0.025,4.548-2.646,7.763-7.33,8.674c-1.459,0.283-2.965,0.382-4.455,0.451
			c-6.217,0.289-7.893,2.657-6.319,8.755c0.553,2.144,1.858,2.471,3.735,2.177c1.094-0.172,2.049,0.217,2.066,1.482
			c0.018,1.337-1.14,1.627-2.102,1.53c-3.818-0.383-7.617-0.42-11.437-0.002c-0.938,0.103-2.163-0.01-2.255-1.353
			c-0.082-1.216,0.801-1.868,1.912-1.667c3.855,0.699,4.031-1.721,4.012-4.472c-0.036-5.486-0.079-10.974,0.018-16.459
			c0.051-2.844-0.31-5.033-3.971-4.637c-1.067,0.116-2.049-0.344-1.983-1.634c0.064-1.287,1.183-1.553,2.161-1.521
			C320.019,384.228,322.832,384.455,325.647,384.628z"/>
		<path fill="#FFFFFF" d="M330.075,398.589c-3.328,0.499-5.823,0.335-5.154-4.043c0.498-3.263-1.562-7.974,4.842-7.233
			c1.15,0.133,2.328,0.018,3.493,0.045c3.581,0.082,5.638,1.839,5.687,5.495c0.049,3.68-2.11,5.406-5.57,5.72
			C332.217,398.677,331.044,398.589,330.075,398.589z"/>
	</g>
	<path fill-rule="evenodd" fill="#020202" d="M516.859,415.47c-1.164,0.118-2.32,0.263-3.482,0.34
		c-1.311,0.088-2.955,0.375-3.031-1.534c-0.064-1.614,1.342-1.595,2.559-1.454c2.344,0.272,2.262-1.353,2.264-2.898
		c0.006-3.829-0.035-7.66,0.018-11.489c0.027-2.053-0.117-3.734-2.932-3.244c-1.119,0.194-2.043-0.474-1.889-1.673
		c0.154-1.204,1.23-1.467,2.301-1.268c4.297,0.8,8.387,0.464,12.746-0.512c5.152-1.153,8.895,2.64,9.174,7.951
		c0.139,2.656-0.082,5.333,0.064,7.989c0.131,2.361-1.178,5.867,3.566,5.21c0.578-0.08,1.174,0.544,1.201,1.331
		c0.035,1.057-0.666,1.558-1.535,1.577c-3.307,0.074-6.619,0.072-9.928,0.029c-0.879-0.012-1.637-0.477-1.625-1.493
		c0.01-0.972,0.701-1.636,1.588-1.476c3.535,0.639,3.289-1.678,3.262-3.937c-0.037-2.83,0-5.661-0.016-8.492
		c-0.02-3.369-1.756-5.413-5.063-5.64c-3.213-0.221-6.004,0.824-6.936,4.355c-0.992,3.758-0.531,7.619-0.459,11.436
		c0.021,1.093,0.357,2.467,1.998,2.289c1.48-0.16,2.984-0.099,2.523,1.818c-0.396,1.654-2.078,1.203-3.387,1.059
		C518.852,415.636,517.855,415.559,516.859,415.47z"/>
	<path fill-rule="evenodd" fill="#020202" d="M412.349,415.47c-1.164,0.118-2.32,0.263-3.482,0.34
		c-1.311,0.088-2.955,0.375-3.031-1.534c-0.064-1.614,1.342-1.595,2.559-1.454c2.344,0.272,2.262-1.353,2.264-2.898
		c0.006-3.829-0.035-7.66,0.018-11.489c0.027-2.053-0.117-3.734-2.932-3.244c-1.119,0.194-2.043-0.474-1.889-1.673
		c0.154-1.204,1.23-1.467,2.301-1.268c4.297,0.8,8.387,0.464,12.746-0.512c5.152-1.153,8.895,2.64,9.174,7.951
		c0.139,2.656-0.082,5.333,0.064,7.989c0.131,2.361-1.178,5.867,3.566,5.21c0.578-0.08,1.174,0.544,1.201,1.331
		c0.035,1.057-0.666,1.558-1.535,1.577c-3.307,0.074-6.619,0.072-9.928,0.029c-0.879-0.012-1.637-0.477-1.625-1.493
		c0.01-0.972,0.701-1.636,1.588-1.476c3.535,0.639,3.289-1.678,3.262-3.937c-0.037-2.83,0-5.661-0.016-8.492
		c-0.02-3.369-1.756-5.413-5.063-5.64c-3.213-0.221-6.004,0.824-6.936,4.355c-0.992,3.758-0.531,7.619-0.459,11.436
		c0.021,1.093,0.357,2.467,1.998,2.289c1.48-0.16,2.984-0.099,2.523,1.818c-0.396,1.654-2.078,1.203-3.387,1.059
		C414.341,415.636,413.345,415.559,412.349,415.47z"/>
	<g>
		<path fill-rule="evenodd" fill="#030303" d="M485.089,402.392c0.004,2.329-0.027,4.659,0.014,6.987
			c0.033,1.808-0.258,3.88,2.742,3.457c0.83-0.117,1.65,0.438,1.684,1.437c0.043,1.35-1.084,1.726-2.031,1.623
			c-2.99-0.322-5.951-0.336-8.945-0.038c-0.629,0.063-1.795-0.678-1.93-1.237c-0.283-1.172,0.82-1.883,1.805-1.732
			c3.549,0.541,3.229-1.798,3.215-4.012c-0.018-2.995,0.025-5.99-0.014-8.984c-0.031-2.359,0.869-5.377-3.494-4.707
			c-0.889,0.137-2-1.158-1.102-2.1c1.85-1.941,4.373-0.251,6.598-0.718c1.613-0.339,1.416,1.451,1.439,2.539
			C485.124,397.4,485.087,399.896,485.089,402.392z"/>
		<path fill-rule="evenodd" fill="#1A1A1A" d="M482.655,389.691c-1.643-0.065-2.453-1.11-2.418-2.554
			c0.035-1.41,0.84-2.579,2.459-2.547c1.754,0.033,2.813,1.122,2.658,2.828C485.228,388.822,484.271,389.787,482.655,389.691z"/>
	</g>
	<g>
		<path fill-rule="evenodd" fill="#030303" d="M400.578,402.392c0.004,2.329-0.027,4.659,0.014,6.987
			c0.033,1.808-0.258,3.88,2.742,3.457c0.83-0.117,1.65,0.438,1.684,1.437c0.043,1.35-1.084,1.726-2.031,1.623
			c-2.99-0.322-5.951-0.336-8.945-0.038c-0.629,0.063-1.795-0.678-1.93-1.237c-0.283-1.172,0.82-1.883,1.805-1.732
			c3.549,0.541,3.229-1.798,3.215-4.012c-0.018-2.995,0.025-5.99-0.014-8.984c-0.031-2.359,0.869-5.377-3.494-4.707
			c-0.889,0.137-2-1.158-1.102-2.1c1.85-1.941,4.373-0.251,6.598-0.718c1.613-0.339,1.416,1.451,1.439,2.539
			C400.613,397.4,400.576,399.896,400.578,402.392z"/>
		<path fill-rule="evenodd" fill="#1A1A1A" d="M398.145,389.691c-1.643-0.065-2.453-1.11-2.418-2.554
			c0.035-1.41,0.84-2.579,2.459-2.547c1.754,0.033,2.813,1.122,2.658,2.828C400.717,388.822,399.76,389.787,398.145,389.691z"/>
	</g>
	<path fill-rule="evenodd" fill="#090909" d="M475.286,406.721c0.09,5.531-2.023,8.664-6.213,9.117
		c-3.706,0.4-6.742-0.774-7.207-4.987c-0.38-3.445-0.242-6.945-0.449-10.414c-0.14-2.349,1.265-5.445-3.069-5.877
		c-1.349-0.135-1.521-2.246-0.046-2.412c3.405-0.381,3.229-2.49,3.163-4.87c-0.036-1.313-0.036-2.952,1.776-2.994
		c1.84-0.043,2.029,1.635,1.828,2.906c-0.614,3.882,1.063,5.064,4.689,4.552c1.028-0.145,2.626-0.409,2.764,1.262
		c0.152,1.854-1.434,2.183-2.736,1.946c-4.761-0.86-5.008,1.849-4.709,5.416c0.235,2.806,0.064,5.645,0.102,8.469
		c0.026,2.051,0.789,3.673,3.059,3.781c2.254,0.107,3.205-1.429,3.477-3.449c0.111-0.819,0.03-1.662,0.119-2.485
		c0.135-1.27-0.041-3.031,1.916-2.77C475.45,404.139,475.373,405.736,475.286,406.721z"/>
	<g>
		<path fill-rule="evenodd" fill="#040404" d="M342.373,403.372c0.013-7.674,4.432-12.594,11.205-12.471
			c6.663,0.121,10.9,4.834,10.991,12.229c0.095,7.646-4.692,12.936-11.563,12.777C346.528,415.757,342.36,410.843,342.373,403.372z"
			/>
		<path fill-rule="evenodd" fill="#FFFFFF" d="M360.736,403.577c-0.124,5.764-2.955,9.184-7.565,9.137
			c-4.325-0.045-7.288-4.006-7.155-9.566c0.135-5.611,3.145-9.145,7.71-9.049C358.357,394.196,360.865,397.587,360.736,403.577z"/>
	</g>
	<g>
		<path fill-rule="evenodd" fill="#040404" d="M489.04,403.372c0.013-7.674,4.432-12.594,11.205-12.471
			c6.663,0.121,10.9,4.834,10.991,12.229c0.095,7.646-4.692,12.936-11.563,12.777C493.195,415.757,489.027,410.843,489.04,403.372z"
			/>
		<path fill="#FFFFFF" stroke="#FFFFFF" stroke-miterlimit="10" d="M507.403,403.577c-0.124,5.764-2.955,9.184-7.565,9.137
			c-4.325-0.045-7.288-4.006-7.155-9.566c0.135-5.611,3.145-9.145,7.71-9.049C505.024,394.196,507.532,397.587,507.403,403.577z"/>
	</g>
	<path fill-rule="evenodd" fill="#0E0E0E" d="M361.581,414.824c-0.055-0.383-0.111-0.764-0.166-1.146
		c5.699,0.184,6.754-2.988,6.278-7.955c-0.425-4.447-0.064-8.967-0.099-13.453c-0.021-2.65,0.973-5.979-3.813-5.477
		c-1.139,0.119-1.81-1.186-0.995-2.096c2.003-2.236,4.656,0.074,7.083-0.695c1.407-0.447,1.434,1.787,1.437,3.076
		c0.017,7.146-0.007,14.293,0.019,21.439c0.008,2.213-0.704,4.99,3.281,4.328c0.806-0.135,1.555,0.668,1.414,1.635
		c-0.133,0.916-0.96,1.576-1.772,1.402C370.063,414.992,365.658,416.816,361.581,414.824z"/>
	<path fill-rule="evenodd" fill="#0E0E0E" d="M377.081,414.824c-0.055-0.383-0.111-0.764-0.166-1.146
		c5.699,0.184,6.754-2.988,6.278-7.955c-0.425-4.447-0.064-8.967-0.099-13.453c-0.021-2.65,0.973-5.979-3.813-5.477
		c-1.139,0.119-1.81-1.186-0.995-2.096c2.003-2.236,4.656,0.074,7.083-0.695c1.407-0.447,1.434,1.787,1.437,3.076
		c0.017,7.146-0.007,14.293,0.019,21.439c0.008,2.213-0.704,4.99,3.281,4.328c0.806-0.135,1.555,0.668,1.414,1.635
		c-0.133,0.916-0.96,1.576-1.772,1.402C385.563,414.992,381.158,416.816,377.081,414.824z"/>
	<g>
		<path fill-rule="evenodd" fill="#030303" d="M453.636,404.115c0,2.153-0.078,4.311,0.031,6.459
			c0.06,1.181,0.443,2.423,2.033,2.246c1.31-0.146,1.218-1.314,1.418-2.278c0.326-1.568-0.959-4.503,1.816-4.174
			c2.202,0.262,1.223,3.117,1.123,4.755c-0.27,4.427-4.686,6.337-8.269,3.33c-1.547-1.297-2.105-1.142-3.447-0.208
			c-2.47,1.718-5.317,1.946-8.152,1.231c-3.395-0.855-5.617-2.965-5.638-6.668c-0.021-3.459,1.913-5.633,5.177-6.443
			c2.242-0.558,4.588-0.688,6.868-1.111c2.175-0.403,3.837-1.377,3.313-4.017c-0.538-2.71-2.726-3.396-4.921-3.142
			c-1.581,0.184-4.551-0.453-3.836,2.976c0.275,1.324,0.087,2.338-1.301,2.742c-0.976,0.284-1.992,0.231-2.758-0.596
			c-1.024-1.106-1.129-2.332-0.445-3.676c2.041-4.01,5.611-5.04,9.657-4.642c3.997,0.394,7.006,2.3,7.414,6.722
			c0.197,2.147,0.033,4.328,0.033,6.494C453.714,404.116,453.675,404.116,453.636,404.115z"/>
		<path fill="#FFFFFF" d="M449.642,403.348c0.451,6.69-2.38,9.999-7.446,9.204c-2.125-0.333-3.907-1.294-4.011-3.686
			c-0.095-2.193,1.537-3.18,3.421-3.664C444.16,404.546,446.911,404.833,449.642,403.348z"/>
	</g>
</g>
<g>
	<circle fill="none" stroke="#010101" stroke-width="4.2433" cx="271.549" cy="399.554" r="13.26"/>
	<circle fill="none" stroke="#010101" stroke-width="4.2433" cx="282.553" cy="388.548" r="13.26"/>
	<path fill="none" stroke="#010101" stroke-width="4.2433" d="M293.828,386.294c7.322,0,13.258,5.936,13.258,13.257
		c0,7.325-5.936,13.263-13.258,13.263c-7.324,0-13.261-5.938-13.261-13.263C280.567,392.229,286.504,386.294,293.828,386.294z"/>
	<circle fill="none" stroke="#010101" stroke-width="4.2433" cx="282.553" cy="410.825" r="13.261"/>
	<path fill="none" stroke="#FFFFFF" stroke-width="4.2433" d="M282.689,377.762v-10.604"/>
	<path fill="none" stroke="#FFFFFF" stroke-width="4.2433" d="M275.287,384.128c0-2.653-0.354-4.243-1.768-5.659"/>
	<path fill="none" stroke="#FFFFFF" stroke-width="4.2433" d="M290.114,384.128c0-2.653,0.354-4.243,1.769-5.659"/>
	<path fill="#2DA9E1" stroke="#FFFFFF" stroke-width="2.1217" d="M271.549,389.474c5.566,0,10.079,4.514,10.079,10.077
		c0,5.567-4.513,10.08-10.079,10.08c-5.564,0-10.078-4.513-10.078-10.08C261.471,393.987,265.984,389.474,271.549,389.474z"/>
	<circle fill="#04A54F" stroke="#FFFFFF" stroke-width="2.1217" cx="282.553" cy="388.547" r="10.078"/>
	<path fill="#EB2227" stroke="#FFFFFF" stroke-width="2.1217" d="M293.828,389.474c5.564,0,10.078,4.514,10.078,10.077
		c0,5.567-4.514,10.08-10.078,10.08c-5.567,0-10.079-4.513-10.079-10.08C283.749,393.987,288.261,389.474,293.828,389.474z"/>
	<circle fill="#F2B24D" stroke="#FFFFFF" stroke-width="2.1217" cx="282.553" cy="410.825" r="10.078"/>
	<path fill="none" stroke="#FFFFFF" stroke-width="4.2433" d="M280.567,399.51c0,4.981-4.038,9.018-9.019,9.018
		c-4.979,0-9.014-4.036-9.014-9.018"/>
	<path fill="#2DA9E1" d="M271.549,408.527c4.98,0,9.019-4.036,9.019-9.018h-18.032C262.535,404.491,266.57,408.527,271.549,408.527z
		"/>
	<path fill="none" stroke="#010101" stroke-width="2.1217" d="M282.689,407.466v-38.54"/>
	<path fill="none" stroke="#FFFFFF" stroke-width="4.2433" d="M273.52,378.469l-4.242-4.237"/>
	<path fill="none" stroke="#010101" stroke-width="2.1217" d="M275.263,399.687l0.024-15.559"/>
	<path fill="none" stroke="#010101" stroke-width="2.1217" d="M273.52,378.469l-3.885-3.886"/>
	<path fill="none" stroke="#010101" stroke-width="2.1217" d="M275.287,384.128c0-2.653-0.354-4.243-1.768-5.659"/>
	<path fill="none" stroke="#FFFFFF" stroke-width="4.2433" d="M291.883,378.469l4.238-4.237"/>
	<path fill="none" stroke="#010101" stroke-width="2.1217" d="M290.114,399.687v-15.559"/>
	<path fill="none" stroke="#010101" stroke-width="2.1217" d="M291.883,378.469l3.887-3.886"/>
	<path fill="none" stroke="#010101" stroke-width="2.1217" d="M290.114,384.128c0-2.653,0.354-4.243,1.769-5.659"/>
	<path fill="#FFFFFF" stroke="#010101" stroke-width="2.1217" d="M282.689,397.212c1.365,0,2.475,1.108,2.475,2.475
		c0,1.368-1.109,2.477-2.475,2.477c-1.37,0-2.477-1.108-2.477-2.477C280.213,398.32,281.319,397.212,282.689,397.212z"/>
	<circle fill="#FFFFFF" stroke="#010101" stroke-width="2.1217" cx="275.263" cy="399.688" r="2.476"/>
	<path fill="#FFFFFF" stroke="#010101" stroke-width="2.1217" d="M269.635,372.107c1.365,0,2.473,1.109,2.473,2.476
		c0,1.367-1.107,2.475-2.473,2.475c-1.369,0-2.479-1.107-2.479-2.475C267.156,373.217,268.266,372.107,269.635,372.107z"/>
	<path fill="#FFFFFF" stroke="#010101" stroke-width="2.1217" d="M282.689,366.451c1.365,0,2.475,1.108,2.475,2.475
		c0,1.365-1.109,2.477-2.475,2.477c-1.37,0-2.477-1.111-2.477-2.477C280.213,367.56,281.319,366.451,282.689,366.451z"/>
	<circle fill="#FFFFFF" stroke="#010101" stroke-width="2.1217" cx="295.77" cy="374.583" r="2.475"/>
	<circle fill="#FFFFFF" stroke="#010101" stroke-width="2.1217" cx="290.114" cy="399.688" r="2.476"/>
	<path fill="#FFFFFF" stroke="#010101" stroke-width="2.1217" d="M282.689,404.638c1.365,0,2.475,1.107,2.475,2.475
		c0,1.366-1.109,2.477-2.475,2.477c-1.37,0-2.477-1.11-2.477-2.477C280.213,405.745,281.319,404.638,282.689,404.638z"/>
	<path fill="#FFFFFF" stroke="#010101" stroke-width="2.1217" d="M282.689,389.786c1.365,0,2.475,1.108,2.475,2.474
		c0,1.368-1.109,2.477-2.475,2.477c-1.37,0-2.477-1.108-2.477-2.477C280.213,390.895,281.319,389.786,282.689,389.786z"/>
	<line fill="none" stroke="#FFFFFF" stroke-width="3.1825" x1="303.906" y1="399.551" x2="309.386" y2="399.551"/>
	<line fill="none" stroke="#FFFFFF" stroke-width="3.1825" x1="255.991" y1="399.551" x2="261.824" y2="399.551"/>
	<line fill="none" stroke="#FFFFFF" stroke-width="3.1825" x1="282.6" y1="426.327" x2="282.6" y2="420.885"/>
</g>
</svg>
